<svg aria-hidden="true" style="width:0;height:0;position:absolute;overflow:hidden" xmlns="http://www.w3.org/2000/svg"><defs><symbol id="icon-tv" viewBox="0 0 32 32"><path fill="none" stroke="#fff" style="stroke:var(--color1,#fff)" stroke-linejoin="round" stroke-linecap="round" stroke-width="2.286" d="M26.667 9.333H5.334A2.667 2.667 0 0 0 2.667 12v14.667a2.667 2.667 0 0 0 2.667 2.667h21.333a2.667 2.667 0 0 0 2.667-2.667V12a2.667 2.667 0 0 0-2.667-2.667z"/><path fill="none" stroke="#fff" style="stroke:var(--color1,#fff)" stroke-linejoin="round" stroke-linecap="round" stroke-width="2.286" d="M22.667 2.667 16 9.334 9.333 2.667"/></symbol><symbol id="icon-settings" viewBox="0 0 32 32"><path fill="none" stroke="#fff" style="stroke:var(--color1,#fff)" stroke-linejoin="round" stroke-linecap="round" stroke-width="2.286" d="M16 20a4 4 0 1 0 0-8 4 4 0 0 0 0 8z"/><path fill="none" stroke="#fff" style="stroke:var(--color1,#fff)" stroke-linejoin="round" stroke-linecap="round" stroke-width="2.286" d="M25.867 20a2.2 2.2 0 0 0 .44 2.427l.08.08a2.666 2.666 0 0 1 0 3.774 2.666 2.666 0 0 1-3.774 0l-.08-.08a2.197 2.197 0 0 0-2.427-.44 2.2 2.2 0 0 0-1.334 2.013v.227a2.668 2.668 0 0 1-5.334 0v-.12a2.196 2.196 0 0 0-1.44-2.013 2.2 2.2 0 0 0-2.427.44l-.08.08a2.666 2.666 0 0 1-4.352-.866 2.672 2.672 0 0 1 .579-2.908l.08-.08a2.197 2.197 0 0 0 .44-2.427 2.2 2.2 0 0 0-2.013-1.334h-.227a2.668 2.668 0 0 1 0-5.334h.12a2.196 2.196 0 0 0 2.013-1.44 2.2 2.2 0 0 0-.44-2.427l-.08-.08a2.666 2.666 0 0 1 .865-4.352 2.668 2.668 0 0 1 2.908.579l.08.08a2.197 2.197 0 0 0 2.427.44h.107a2.2 2.2 0 0 0 1.334-2.013v-.227a2.668 2.668 0 0 1 5.334 0v.12A2.203 2.203 0 0 0 20 6.132a2.2 2.2 0 0 0 2.427-.44l.08-.08a2.666 2.666 0 0 1 3.774 0 2.672 2.672 0 0 1 .782 1.886 2.672 2.672 0 0 1-.782 1.887l-.08.08a2.197 2.197 0 0 0-.44 2.427v.107a2.2 2.2 0 0 0 2.013 1.334h.227a2.668 2.668 0 0 1 0 5.334h-.12a2.203 2.203 0 0 0-2.013 1.334v0z"/></symbol><symbol id="icon-star" viewBox="0 0 32 32"><path fill="#f8bd38" style="fill:var(--color2,#f8bd38)" d="m15.997 2.667 4.12 8.347 9.213 1.347-6.667 6.493 1.573 9.173-8.24-4.333-8.24 4.333 1.573-9.173-6.667-6.493 9.213-1.347 4.12-8.347z"/></symbol><symbol id="icon-monitor" viewBox="0 0 32 32"><path fill="none" stroke="#fff" style="stroke:var(--color1,#fff)" stroke-linejoin="round" stroke-linecap="round" stroke-width="2.286" d="M26.667 4H5.334a2.667 2.667 0 0 0-2.667 2.667V20a2.667 2.667 0 0 0 2.667 2.667h21.333A2.667 2.667 0 0 0 29.334 20V6.667A2.667 2.667 0 0 0 26.667 4zM10.667 28h10.667M16 22.667V28"/></symbol><symbol id="icon-Logo" viewBox="0 0 33 32"><path fill="#39435a" style="fill:var(--color3,#39435a)" d="m20.642 1.681 7.615 13.159a2.317 2.317 0 0 1 0 2.32l-7.615 13.159a2.325 2.325 0 0 1-2.013 1.16h4.462c.831 0 1.598-.442 2.013-1.16l7.615-13.159a2.317 2.317 0 0 0 0-2.32L25.104 1.681a2.325 2.325 0 0 0-2.013-1.16h-4.462c.831 0 1.598.442 2.013 1.16z"/><path fill="#2c374c" style="fill:var(--color4,#2c374c)" d="m20.642 1.681.339.586a13.75 13.75 0 0 1 1.787.145c1.217.179 2.338.504 3.296.928l-.96-1.659a2.325 2.325 0 0 0-2.013-1.16h-4.462c.831 0 1.598.442 2.013 1.16z"/><path fill="#39435a" style="fill:var(--color3,#39435a)" d="m12.054 1.681 7.615 13.159a2.317 2.317 0 0 1 0 2.32l-7.615 13.159a2.325 2.325 0 0 1-2.013 1.16h4.462c.831 0 1.598-.442 2.013-1.16l7.615-13.159a2.317 2.317 0 0 0 0-2.32L16.516 1.681a2.325 2.325 0 0 0-2.014-1.16H10.04c.831 0 1.598.442 2.013 1.16z"/><path fill="#435f94" style="fill:var(--color5,#435f94)" d="M12.389 30.319 4.774 17.16a2.317 2.317 0 0 1 0-2.32l7.615-13.159a2.325 2.325 0 0 1 2.013-1.16H9.94c-.831 0-1.598.442-2.013 1.16L.312 14.84a2.317 2.317 0 0 0 0 2.32l7.615 13.159a2.325 2.325 0 0 0 2.013 1.16h4.462a2.324 2.324 0 0 1-2.013-1.16z"/><path fill="#377dff" style="fill:var(--color6,#377dff)" d="M16.788 30.319 9.173 17.16a2.317 2.317 0 0 1 0-2.32l7.615-13.159a2.325 2.325 0 0 1 2.013-1.16h-4.462c-.831 0-1.598.442-2.013 1.16L4.711 14.84a2.317 2.317 0 0 0 0 2.32l7.615 13.159a2.325 2.325 0 0 0 2.013 1.16h4.462a2.324 2.324 0 0 1-2.013-1.16z"/><path fill="#37dbff" style="fill:var(--color7,#37dbff)" d="M21.272 30.319 13.657 17.16a2.317 2.317 0 0 1 0-2.32l7.615-13.159a2.325 2.325 0 0 1 2.014-1.16h-4.462c-.831 0-1.598.442-2.013 1.16L9.196 14.84a2.317 2.317 0 0 0 0 2.32l7.615 13.159a2.325 2.325 0 0 0 2.013 1.16h4.462a2.327 2.327 0 0 1-2.014-1.16z"/></symbol><symbol id="icon-menu" viewBox="0 0 32 32"><path d="M2 6h28v6H2zm0 8h28v6H2zm0 8h28v6H2z"/></symbol><symbol id="icon-play2" viewBox="0 0 32 32"><path fill="#377dff" d="M16 0C7.163 0 0 7.163 0 16s7.163 16 16 16 16-7.163 16-16S24.837 0 16 0zm0 29C8.82 29 3 23.18 3 16S8.82 3 16 3s13 5.82 13 13-5.82 13-13 13zM12 9l12 7-12 7z"/></symbol><symbol id="icon-pen" viewBox="0 0 32 32"><path fill="#fff" d="m31.818 22.878-8.939 8.939c-.292.292-.676.226-.855-.146l-1.199-2.497 8.35-8.35 2.497 1.199c.372.178.438.563.146.855z"/><path d="M19.231 27.769 11 27.083c-.547-.068-1.002-.184-1.159-.898l-.001-.002C7.608 15.462 0 5 0 5l1.793-1.793 8.5 8.5a3 3 0 1 0 1.414-1.414l-8.5-8.5L5 0s10.462 7.608 21.183 9.84l.002.001c.714.157.831.612.898 1.159l.686 8.231-8.538 8.538z"/></symbol></defs></svg>