<svg aria-hidden="true" style="position: absolute; width: 0; height: 0; overflow: hidden;" version="1.1" xmlns="http://www.w3.org/2000/svg" xmlns:xlink="http://www.w3.org/1999/xlink">
<defs>
<symbol id="icon-tv" viewBox="0 0 32 32">
<path fill="none" stroke="#fff" style="stroke: var(--color1, #fff)" stroke-linejoin="round" stroke-linecap="round" stroke-miterlimit="4" stroke-width="2.2857" d="M26.667 9.333h-21.333c-1.473 0-2.667 1.194-2.667 2.667v14.667c0 1.473 1.194 2.667 2.667 2.667h21.333c1.473 0 2.667-1.194 2.667-2.667v-14.667c0-1.473-1.194-2.667-2.667-2.667z"></path>
<path fill="none" stroke="#fff" style="stroke: var(--color1, #fff)" stroke-linejoin="round" stroke-linecap="round" stroke-miterlimit="4" stroke-width="2.2857" d="M22.667 2.667l-6.667 6.667-6.667-6.667"></path>
</symbol>
<symbol id="icon-settings" viewBox="0 0 32 32">
<path fill="none" stroke="#fff" style="stroke: var(--color1, #fff)" stroke-linejoin="round" stroke-linecap="round" stroke-miterlimit="4" stroke-width="2.2857" d="M16 20c2.209 0 4-1.791 4-4s-1.791-4-4-4c-2.209 0-4 1.791-4 4s1.791 4 4 4z"></path>
<path fill="none" stroke="#fff" style="stroke: var(--color1, #fff)" stroke-linejoin="round" stroke-linecap="round" stroke-miterlimit="4" stroke-width="2.2857" d="M25.867 20c-0.178 0.402-0.23 0.848-0.152 1.281s0.285 0.832 0.592 1.146l0.080 0.080c0.248 0.248 0.445 0.542 0.579 0.866s0.203 0.671 0.203 1.021c0 0.35-0.069 0.697-0.203 1.021s-0.331 0.618-0.579 0.866c-0.248 0.248-0.542 0.445-0.866 0.579s-0.671 0.203-1.021 0.203c-0.35 0-0.697-0.069-1.021-0.203s-0.618-0.331-0.866-0.579l-0.080-0.080c-0.314-0.307-0.713-0.514-1.146-0.592s-0.879-0.026-1.281 0.152c-0.394 0.169-0.731 0.45-0.968 0.807s-0.364 0.777-0.366 1.206v0.227c0 0.707-0.281 1.386-0.781 1.886s-1.178 0.781-1.886 0.781c-0.707 0-1.386-0.281-1.886-0.781s-0.781-1.178-0.781-1.886v-0.12c-0.010-0.441-0.153-0.869-0.41-1.228s-0.616-0.633-1.030-0.785c-0.402-0.178-0.848-0.23-1.281-0.152s-0.832 0.285-1.146 0.592l-0.080 0.080c-0.248 0.248-0.542 0.445-0.866 0.579s-0.671 0.203-1.021 0.203c-0.35 0-0.697-0.069-1.021-0.203s-0.618-0.331-0.865-0.579c-0.248-0.248-0.445-0.542-0.579-0.866s-0.203-0.671-0.203-1.021c0-0.35 0.069-0.697 0.203-1.021s0.331-0.618 0.579-0.866l0.080-0.080c0.307-0.314 0.514-0.713 0.592-1.146s0.025-0.879-0.152-1.281c-0.169-0.394-0.45-0.731-0.807-0.968s-0.777-0.364-1.206-0.366h-0.227c-0.707 0-1.386-0.281-1.886-0.781s-0.781-1.178-0.781-1.886c0-0.707 0.281-1.386 0.781-1.886s1.178-0.781 1.886-0.781h0.12c0.441-0.010 0.869-0.153 1.228-0.41s0.633-0.616 0.785-1.030c0.178-0.402 0.23-0.848 0.152-1.281s-0.285-0.832-0.592-1.146l-0.080-0.080c-0.248-0.248-0.445-0.542-0.579-0.866s-0.203-0.671-0.203-1.021c0-0.35 0.069-0.697 0.203-1.021s0.331-0.618 0.579-0.865c0.248-0.248 0.542-0.445 0.865-0.579s0.671-0.203 1.021-0.203c0.35 0 0.697 0.069 1.021 0.203s0.618 0.331 0.866 0.579l0.080 0.080c0.314 0.307 0.713 0.514 1.146 0.592s0.879 0.025 1.281-0.152h0.107c0.394-0.169 0.731-0.45 0.968-0.807s0.364-0.777 0.366-1.206v-0.227c0-0.707 0.281-1.386 0.781-1.886s1.178-0.781 1.886-0.781c0.707 0 1.386 0.281 1.886 0.781s0.781 1.178 0.781 1.886v0.12c0.002 0.429 0.129 0.848 0.366 1.206s0.573 0.638 0.968 0.807c0.402 0.178 0.848 0.23 1.281 0.152s0.832-0.285 1.146-0.592l0.080-0.080c0.248-0.248 0.542-0.445 0.866-0.579s0.671-0.203 1.021-0.203c0.35 0 0.697 0.069 1.021 0.203s0.618 0.331 0.866 0.579c0.248 0.248 0.445 0.542 0.579 0.865s0.203 0.671 0.203 1.021c0 0.35-0.069 0.697-0.203 1.021s-0.331 0.618-0.579 0.866l-0.080 0.080c-0.307 0.314-0.514 0.713-0.592 1.146s-0.026 0.879 0.152 1.281v0.107c0.169 0.394 0.45 0.731 0.807 0.968s0.777 0.364 1.206 0.366h0.227c0.707 0 1.386 0.281 1.886 0.781s0.781 1.178 0.781 1.886c0 0.707-0.281 1.386-0.781 1.886s-1.178 0.781-1.886 0.781h-0.12c-0.429 0.002-0.848 0.129-1.206 0.366s-0.638 0.573-0.807 0.968v0z"></path>
</symbol>
<symbol id="icon-star" viewBox="0 0 32 32">
<path fill="#f8bd38" style="fill: var(--color2, #f8bd38)" d="M15.997 2.667l4.12 8.347 9.213 1.347-6.667 6.493 1.573 9.173-8.24-4.333-8.24 4.333 1.573-9.173-6.667-6.493 9.213-1.347 4.12-8.347z"></path>
</symbol>
<symbol id="icon-monitor" viewBox="0 0 32 32">
<path fill="none" stroke="#fff" style="stroke: var(--color1, #fff)" stroke-linejoin="round" stroke-linecap="round" stroke-miterlimit="4" stroke-width="2.2857" d="M26.667 4h-21.333c-1.473 0-2.667 1.194-2.667 2.667v13.333c0 1.473 1.194 2.667 2.667 2.667h21.333c1.473 0 2.667-1.194 2.667-2.667v-13.333c0-1.473-1.194-2.667-2.667-2.667z"></path>
<path fill="none" stroke="#fff" style="stroke: var(--color1, #fff)" stroke-linejoin="round" stroke-linecap="round" stroke-miterlimit="4" stroke-width="2.2857" d="M10.667 28h10.667"></path>
<path fill="none" stroke="#fff" style="stroke: var(--color1, #fff)" stroke-linejoin="round" stroke-linecap="round" stroke-miterlimit="4" stroke-width="2.2857" d="M16 22.667v5.333"></path>
</symbol>
<symbol id="icon-Logo" viewBox="0 0 33 32">
<path fill="#39435a" style="fill: var(--color3, #39435a)" d="M20.642 1.681l7.615 13.159c0.415 0.718 0.415 1.602 0 2.32l-7.615 13.159c-0.415 0.718-1.183 1.16-2.013 1.16h4.462c0.831 0 1.598-0.442 2.013-1.16l7.615-13.159c0.415-0.718 0.415-1.602 0-2.32l-7.615-13.159c-0.415-0.718-1.183-1.16-2.013-1.16h-4.462c0.831 0 1.598 0.442 2.013 1.16z"></path>
<path fill="#2c374c" style="fill: var(--color4, #2c374c)" d="M20.642 1.681l0.339 0.586c0.577 0.008 1.176 0.056 1.787 0.145 1.217 0.179 2.338 0.504 3.296 0.928l-0.96-1.659c-0.415-0.718-1.183-1.16-2.013-1.16h-4.462c0.831 0 1.598 0.442 2.013 1.16z"></path>
<path fill="#39435a" style="fill: var(--color3, #39435a)" d="M12.054 1.681l7.615 13.159c0.415 0.718 0.415 1.602 0 2.32l-7.615 13.159c-0.415 0.718-1.183 1.16-2.013 1.16h4.462c0.831 0 1.598-0.442 2.013-1.16l7.615-13.159c0.415-0.718 0.415-1.602 0-2.32l-7.615-13.159c-0.415-0.718-1.183-1.16-2.014-1.16h-4.462c0.831 0 1.598 0.442 2.013 1.16z"></path>
<path fill="#435f94" style="fill: var(--color5, #435f94)" d="M12.389 30.319l-7.615-13.159c-0.415-0.718-0.415-1.602 0-2.32l7.615-13.159c0.415-0.718 1.183-1.16 2.013-1.16h-4.462c-0.831 0-1.598 0.442-2.013 1.16l-7.615 13.159c-0.415 0.718-0.415 1.602 0 2.32l7.615 13.159c0.415 0.718 1.183 1.16 2.013 1.16h4.462c-0.831 0-1.598-0.442-2.013-1.16z"></path>
<path fill="#377dff" style="fill: var(--color6, #377dff)" d="M16.788 30.319l-7.615-13.159c-0.415-0.718-0.415-1.602 0-2.32l7.615-13.159c0.415-0.718 1.183-1.16 2.013-1.16h-4.462c-0.831 0-1.598 0.442-2.013 1.16l-7.615 13.159c-0.415 0.718-0.415 1.602 0 2.32l7.615 13.159c0.415 0.718 1.183 1.16 2.013 1.16h4.462c-0.831-0-1.598-0.442-2.013-1.16z"></path>
<path fill="#37dbff" style="fill: var(--color7, #37dbff)" d="M21.272 30.319l-7.615-13.159c-0.415-0.718-0.415-1.602 0-2.32l7.615-13.159c0.415-0.718 1.183-1.16 2.014-1.16h-4.462c-0.831 0-1.598 0.442-2.013 1.16l-7.615 13.159c-0.415 0.718-0.415 1.602 0 2.32l7.615 13.159c0.415 0.718 1.183 1.16 2.013 1.16h4.462c-0.831-0-1.598-0.442-2.014-1.16z"></path>
</symbol>
<symbol id="icon-menu" viewBox="0 0 32 32">
<path d="M2 6h28v6h-28zM2 14h28v6h-28zM2 22h28v6h-28z"></path>
</symbol>
<symbol id="icon-play2" viewBox="0 0 32 32">
<path fill="#377dff" d="M16 0c-8.837 0-16 7.163-16 16s7.163 16 16 16 16-7.163 16-16-7.163-16-16-16zM16 29c-7.18 0-13-5.82-13-13s5.82-13 13-13 13 5.82 13 13-5.82 13-13 13zM12 9l12 7-12 7z"></path>
</symbol>
<symbol id="icon-pen" viewBox="0 0 32 32">
<path fill="#ffffff" d="M31.818 22.878l-8.939 8.939c-0.292 0.292-0.676 0.226-0.855-0.146l-1.199-2.497 8.35-8.35 2.497 1.199c0.372 0.178 0.438 0.563 0.146 0.855z"></path>
<path d="M19.231 27.769l-8.231-0.686c-0.547-0.068-1.002-0.184-1.159-0.898-0-0.001-0-0.001-0.001-0.002-2.232-10.721-9.84-21.183-9.84-21.183l1.793-1.793 8.5 8.5c-0.187 0.392-0.293 0.83-0.293 1.293 0 1.657 1.343 3 3 3s3-1.343 3-3-1.343-3-3-3c-0.463 0-0.902 0.105-1.293 0.293l-8.5-8.5 1.793-1.793c0 0 10.462 7.608 21.183 9.84 0.001 0 0.001 0 0.002 0.001 0.714 0.157 0.831 0.612 0.898 1.159l0.686 8.231-8.538 8.538z"></path>
</symbol>
</defs>
</svg>

